<svg width="49" height="49" viewBox="0 0 49 49" fill="none" xmlns="http://www.w3.org/2000/svg">
<path d="M24.5 46.162C23.9079 46.162 23.3159 46.0192 22.7646 45.7129L19.7429 44.2633C18.9875 43.8958 18.6608 42.9771 19.0283 42.2216C19.3958 41.4662 20.2942 41.1396 21.07 41.5071L24.1529 42.9975C24.3775 43.12 24.5816 43.12 24.7245 43.0383L41.0579 33.9734C41.2212 33.8917 41.3233 33.7079 41.3233 33.5242V15.5167C41.3233 15.3329 41.2212 15.1696 41.0579 15.0675L24.7245 6.0025C24.5612 5.92084 24.3775 5.92084 24.2346 6.0025L7.90123 15.0675C7.7379 15.1492 7.6358 15.3329 7.6358 15.5167V33.5242C7.6358 33.7079 7.7379 33.8713 7.90123 33.9734L13.0258 36.8112C13.8221 37.2604 14.7612 37.24 15.5575 36.7704C16.3537 36.3008 16.8233 35.4841 16.8233 34.5654L16.8437 18.375C16.8437 17.5379 17.5379 16.8437 18.375 16.8437C19.2121 16.8437 19.9062 17.5379 19.9062 18.375L19.8858 34.5654C19.8858 36.5662 18.8446 38.3833 17.1092 39.4041C15.3737 40.425 13.2913 40.4454 11.5355 39.4654L6.41085 36.6275C5.26752 35.9946 4.5733 34.79 4.5733 33.5038V15.4962C4.5733 14.21 5.26752 13.0054 6.41085 12.3725L22.7442 3.30749C23.8263 2.69499 25.133 2.69499 26.215 3.30749L42.5484 12.3725C43.6917 13.0054 44.3858 14.21 44.3858 15.4962V33.5038C44.3858 34.79 43.6917 35.9946 42.5484 36.6275L26.215 45.6925C25.6842 45.9988 25.0921 46.162 24.5 46.162Z" fill="#00008B"/>
<path d="M31.1354 34.1979H27.5625C24.745 34.1979 22.4583 31.9112 22.4583 29.0937C22.4583 28.2567 23.1525 27.5625 23.9896 27.5625C24.8266 27.5625 25.5208 28.2567 25.5208 29.0937C25.5208 30.2167 26.4396 31.1354 27.5625 31.1354H31.1354C32.2583 31.1354 33.1771 30.2167 33.1771 29.0937C33.1771 27.9708 32.2583 27.0521 31.1354 27.0521H27.5625C24.745 27.0521 22.4583 24.7654 22.4583 21.9479C22.4583 19.1304 24.745 16.8438 27.5625 16.8438H31.1354C33.9529 16.8438 36.2396 19.1304 36.2396 21.9479C36.2396 22.785 35.5454 23.4792 34.7083 23.4792C33.8712 23.4792 33.1771 22.785 33.1771 21.9479C33.1771 20.825 32.2583 19.9062 31.1354 19.9062H27.5625C26.4396 19.9062 25.5208 20.825 25.5208 21.9479C25.5208 23.0708 26.4396 23.9896 27.5625 23.9896H31.1354C33.9529 23.9896 36.2396 26.2762 36.2396 29.0937C36.2396 31.9112 33.9529 34.1979 31.1354 34.1979Z" fill="#00008B"/>
</svg>
